<svg xmlns="http://www.w3.org/2000/svg" viewBox="0 0 100 100">
  <rect width="100" height="100" rx="18" fill="#0f1f3d"/>
  <polygon points="5,82 18,82 38,18 25,18" fill="white"/>
  <polygon points="25,18 38,18 30,42 17,42" fill="white"/>
  <polygon points="17,42 30,42 43,82 30,82" fill="white"/>
  <polygon points="48,82 61,82 50,42 37,42" fill="white"/>
  <polygon points="37,42 50,42 62,18 49,18" fill="white"/>
  <polygon points="49,18 62,18 75,55 63,55 55,82 74,82 87,82 87,74 70,74 78,55 66,55" fill="white"/>
</svg>